<svg width="1028" height="100" viewBox="0 0 1028 100" fill="none" xmlns="http://www.w3.org/2000/svg">
<g clip-path="url(#clip0_95_2022)">
<path d="M49.9936 0.000481005L-0.00592041 50L49.9936 99.9995L99.9931 50L49.9936 0.000481005Z" fill="#012233"/>
<path d="M149.994 -0.000256811L99.9948 49.9993L149.994 99.9988L199.994 49.9993L149.994 -0.000256811Z" fill="#012233"/>
<path d="M250.575 -0.000978444L200.576 49.9985L250.575 99.9981L300.575 49.9985L250.575 -0.000978444Z" fill="#012233"/>
<path d="M412.691 -0.00708196L362.692 49.9924L412.691 99.992L462.691 49.9924L412.691 -0.00708196Z" fill="#012233"/>
<path d="M512.692 -0.00781438L462.692 49.9917L512.692 99.9912L562.691 49.9917L512.692 -0.00781438Z" fill="#012233"/>
<path d="M613.266 -0.0014883L563.266 49.998L613.266 99.9976L663.265 49.998L613.266 -0.0014883Z" fill="#012233"/>
<path d="M777.331 -0.00661526L727.331 49.9929L777.331 99.9924L827.33 49.9929L777.331 -0.00661526Z" fill="#012233"/>
<path d="M877.331 -0.00734768L827.332 49.9922L877.331 99.9917L927.331 49.9922L877.331 -0.00734768Z" fill="#012233"/>
<path d="M977.912 -0.0080801L927.913 49.9915L977.912 99.991L1027.91 49.9914L977.912 -0.0080801Z" fill="#012233"/>
</g>
<defs>
<clipPath id="clip0_95_2022">
<rect width="1028" height="100" fill="white"/>
</clipPath>
</defs>
</svg>
