<svg width="1027" height="75" viewBox="0 0 1027 75" fill="none" xmlns="http://www.w3.org/2000/svg">
<g clip-path="url(#clip0_95_2061)">
<path d="M100.28 37.6L72.79 65.64C60.28 78.4 40 78.4 27.49 65.64L0 37.6L27.49 9.57C40 -3.19 60.28 -3.19 72.79 9.57L100.28 37.61V37.6Z" fill="#012233"/>
<path d="M200.57 37.6L173.08 65.64C160.57 78.4 140.29 78.4 127.78 65.64L100.29 37.6L127.78 9.55999C140.29 -3.20001 160.57 -3.20001 173.08 9.55999L200.57 37.6Z" fill="#012233"/>
<path d="M299.47 37.6L271.98 65.64C259.47 78.4 239.19 78.4 226.68 65.64L199.19 37.6L226.68 9.55999C239.19 -3.20001 259.47 -3.20001 271.98 9.55999L299.47 37.6Z" fill="#012233"/>
<path d="M463.25 37.6L435.76 65.64C423.25 78.4 402.97 78.4 390.46 65.64L362.97 37.6L390.46 9.55999C402.97 -3.20001 423.25 -3.20001 435.76 9.55999L463.25 37.6Z" fill="#012233"/>
<path d="M563.55 37.6L536.06 65.64C523.55 78.4 503.27 78.4 490.76 65.64L463.27 37.6L490.76 9.55999C503.27 -3.20001 523.55 -3.20001 536.06 9.55999L563.55 37.6Z" fill="#012233"/>
<path d="M662.45 37.6L634.96 65.64C622.45 78.4 602.17 78.4 589.66 65.64L562.17 37.6L589.66 9.55999C602.17 -3.20001 622.45 -3.20001 634.96 9.55999L662.45 37.6Z" fill="#012233"/>
<path d="M827.9 37.6L800.41 65.64C787.9 78.4 767.62 78.4 755.11 65.64L727.62 37.6L755.11 9.55999C767.62 -3.20001 787.9 -3.20001 800.41 9.55999L827.9 37.6Z" fill="#012233"/>
<path d="M928.2 37.6L900.71 65.64C888.2 78.4 867.92 78.4 855.41 65.64L827.92 37.6L855.41 9.55999C867.92 -3.20001 888.2 -3.20001 900.71 9.55999L928.2 37.6Z" fill="#012233"/>
<path d="M1027.09 37.6L999.6 65.64C987.09 78.4 966.81 78.4 954.3 65.64L926.81 37.6L954.3 9.55999C966.81 -3.20001 987.09 -3.20001 999.6 9.55999L1027.09 37.6Z" fill="#012233"/>
</g>
<defs>
<clipPath id="clip0_95_2061">
<rect width="1027" height="75" fill="white"/>
</clipPath>
</defs>
</svg>
