<svg width="1027" height="100" viewBox="0 0 1027 100" fill="none" xmlns="http://www.w3.org/2000/svg">
<g clip-path="url(#clip0_95_2142)">
<path d="M50 100C77.6142 100 100 77.6142 100 50C100 22.3858 77.6142 0 50 0C22.3858 0 0 22.3858 0 50C0 77.6142 22.3858 100 50 100Z" fill="#012233"/>
<path d="M150 100C177.614 100 200 77.6142 200 50C200 22.3858 177.614 0 150 0C122.386 0 100 22.3858 100 50C100 77.6142 122.386 100 150 100Z" fill="#012233"/>
<path d="M250 100C277.614 100 300 77.6142 300 50C300 22.3858 277.614 0 250 0C222.386 0 200 22.3858 200 50C200 77.6142 222.386 100 250 100Z" fill="#012233"/>
<path d="M413.27 100C440.884 100 463.27 77.6142 463.27 50C463.27 22.3858 440.884 0 413.27 0C385.656 0 363.27 22.3858 363.27 50C363.27 77.6142 385.656 100 413.27 100Z" fill="#012233"/>
<path d="M513.27 100C540.884 100 563.27 77.6142 563.27 50C563.27 22.3858 540.884 0 513.27 0C485.656 0 463.27 22.3858 463.27 50C463.27 77.6142 485.656 100 513.27 100Z" fill="#012233"/>
<path d="M613.27 100C640.884 100 663.27 77.6142 663.27 50C663.27 22.3858 640.884 0 613.27 0C585.656 0 563.27 22.3858 563.27 50C563.27 77.6142 585.656 100 613.27 100Z" fill="#012233"/>
<path d="M777.91 100C805.524 100 827.91 77.6142 827.91 50C827.91 22.3858 805.524 0 777.91 0C750.296 0 727.91 22.3858 727.91 50C727.91 77.6142 750.296 100 777.91 100Z" fill="#012233"/>
<path d="M877.91 100C905.524 100 927.91 77.6142 927.91 50C927.91 22.3858 905.524 0 877.91 0C850.296 0 827.91 22.3858 827.91 50C827.91 77.6142 850.296 100 877.91 100Z" fill="#012233"/>
<path d="M977.91 100C1005.52 100 1027.91 77.6142 1027.91 50C1027.91 22.3858 1005.52 0 977.91 0C950.296 0 927.91 22.3858 927.91 50C927.91 77.6142 950.296 100 977.91 100Z" fill="#012233"/>
</g>
<defs>
<clipPath id="clip0_95_2142">
<rect width="1027" height="100" fill="white"/>
</clipPath>
</defs>
</svg>
