<svg width="599" height="225" viewBox="0 0 599 225" fill="none" xmlns="http://www.w3.org/2000/svg">
<path d="M201.864 118.683L208.637 147.52C208.995 148.925 209.233 150.046 209.382 150.868C209.532 151.691 209.681 152.528 209.815 153.38C209.964 154.232 210.158 155.458 210.382 157.042C210.62 158.567 210.814 160.241 210.993 162.065C211.172 163.889 211.292 165.444 211.351 166.744C211.351 167.447 211.381 168.179 211.441 168.942V171.139H213.201C213.201 169.853 213.246 168.359 213.335 166.684C213.425 165.01 213.559 163.44 213.738 161.96C213.857 160.376 214.021 158.746 214.215 157.072C214.424 155.398 214.693 153.739 215.051 152.094C215.17 151.332 215.319 150.569 215.483 149.807C215.662 149.045 215.841 148.282 216.005 147.52L222.777 118.683H243.452L222.688 186.686V223.64H201.999V186.686L181.146 118.683H201.835H201.864Z" fill="#012233"/>
<path d="M305.385 144.082C305.385 151.197 303.804 156.564 300.626 160.182C297.449 163.799 292.348 166.191 285.307 167.372V168.777C288.067 169.136 290.602 169.749 292.915 170.631C295.227 171.513 297.3 172.754 299.12 174.338C300.88 175.863 302.372 177.717 303.61 179.899C304.848 182.082 305.728 184.369 306.25 186.776C306.832 189.422 307.13 192.367 307.13 195.595C307.13 199.004 306.757 202.188 306.026 205.118C305.295 208.063 304.191 210.679 302.73 212.966C301.148 215.373 299.299 217.361 297.181 218.916C295.063 220.47 292.75 221.636 290.23 222.399C287.53 223.221 284.591 223.64 281.429 223.64H250.358V118.683H280.638C283.637 118.683 286.426 119.057 289.036 119.79C291.647 120.522 293.944 121.599 295.943 123.004C297.882 124.469 299.537 126.173 300.91 128.116C302.282 130.06 303.416 132.436 304.296 135.262C304.654 136.622 304.907 138.027 305.086 139.492C305.265 140.957 305.355 142.497 305.355 144.082H305.385ZM275.373 138.087H271.062V159.868H275.373C277.774 159.868 279.743 159.225 281.265 157.924C281.966 157.341 282.577 156.639 283.07 155.802C283.562 154.979 283.995 153.948 284.353 152.722C284.472 152.139 284.561 151.526 284.621 150.913C284.681 150.3 284.71 149.673 284.71 149.015C284.71 146.309 284.188 144.052 283.129 142.228C282.607 141.406 281.951 140.658 281.19 139.986C280.429 139.313 279.579 138.82 278.64 138.536C277.521 138.237 276.432 138.087 275.388 138.087H275.373ZM271.062 204.236H276.432C278.953 204.236 281.041 203.533 282.682 202.113C283.562 201.411 284.263 200.544 284.8 199.512C285.322 198.481 285.74 197.33 286.038 196.029C286.336 194.624 286.471 193.174 286.471 191.709C286.471 190.244 286.307 188.898 285.993 187.523C285.665 186.148 285.247 184.952 284.71 183.95C283.472 181.828 281.861 180.452 279.878 179.809C278.819 179.451 277.67 179.286 276.447 179.286H271.077V204.251L271.062 204.236Z" fill="#012233"/>
<path d="M314.021 170.541C314.021 164.726 314.931 159.21 316.751 154.008C318.571 148.805 321.121 143.962 324.403 139.492C327.625 135.082 331.488 131.256 335.978 128.027C340.468 124.798 345.286 122.301 350.462 120.537C353.042 119.655 355.727 118.982 358.517 118.504C361.306 118.041 364.14 117.802 367.004 117.802C372.926 117.802 378.505 118.728 383.726 120.582C388.946 122.436 393.734 124.917 398.075 128.041C403.057 131.749 407.115 135.875 410.217 140.434C413.32 144.994 415.647 149.508 417.168 153.978C418.048 156.624 418.72 159.33 419.197 162.095C419.659 164.861 419.898 167.686 419.898 170.556C419.898 176.311 419.003 181.932 417.213 187.404C415.423 192.875 412.917 197.868 409.695 202.397C406.413 206.867 402.52 210.769 398.03 214.087C393.541 217.406 388.752 219.947 383.636 221.711C378.296 223.595 372.747 224.537 367.004 224.537C361.261 224.537 355.563 223.595 350.283 221.711C345.002 219.828 340.184 217.271 335.844 214.042C331.443 210.754 327.61 206.897 324.358 202.487C321.106 198.077 318.571 193.084 316.751 187.493C315.871 184.847 315.199 182.097 314.722 179.241C314.245 176.386 314.021 173.501 314.021 170.556V170.541ZM334.71 170.721C334.71 174.308 335.262 177.836 336.381 181.304C337.499 184.772 339.021 187.837 340.96 190.483C343.078 193.428 345.48 195.909 348.18 197.942C350.88 199.976 353.788 201.485 356.891 202.487C360.172 203.668 363.573 204.251 367.094 204.251C370.614 204.251 373.985 203.683 377.207 202.532C380.429 201.381 383.368 199.781 386.008 197.733C388.648 195.73 390.96 193.338 392.959 190.543C394.958 187.747 396.479 184.683 397.538 181.319C398.06 179.675 398.478 177.971 398.776 176.207C399.075 174.443 399.209 172.619 399.209 170.735C399.209 167.267 398.657 163.874 397.538 160.555C396.419 157.237 394.898 154.247 392.959 151.601C388.857 146.01 383.576 142.078 377.118 139.776C373.896 138.655 370.539 138.102 367.079 138.102C364.26 138.102 361.217 138.566 357.92 139.477C354.638 140.389 351.342 142.049 348.06 144.455C345.36 146.459 343.004 148.805 340.975 151.511C338.946 154.217 337.41 157.192 336.351 160.421C335.829 162.065 335.411 163.754 335.113 165.488C334.815 167.223 334.665 168.972 334.665 170.735L334.71 170.721Z" fill="#012233"/>
<path d="M426.67 170.541C426.67 164.726 427.58 159.21 429.4 154.008C431.22 148.805 433.771 143.962 437.052 139.492C440.274 135.082 444.138 131.256 448.627 128.027C453.117 124.798 457.935 122.301 463.111 120.537C465.692 119.655 468.377 118.982 471.166 118.504C473.956 118.041 476.79 117.802 479.654 117.802C485.575 117.802 491.154 118.728 496.375 120.582C501.596 122.436 506.384 124.917 510.725 128.041C515.707 131.749 519.764 135.875 522.867 140.434C525.969 144.994 528.296 149.508 529.818 153.978C530.698 156.624 531.369 159.33 531.846 162.095C532.309 164.861 532.547 167.686 532.547 170.556C532.547 176.311 531.652 181.932 529.862 187.404C528.072 192.875 525.566 197.868 522.345 202.397C519.063 206.867 515.17 210.769 510.68 214.087C506.19 217.406 501.402 219.947 496.285 221.711C490.945 223.595 485.396 224.537 479.654 224.537C473.911 224.537 468.213 223.595 462.932 221.711C457.652 219.828 452.834 217.271 448.493 214.042C444.093 210.754 440.259 206.897 437.007 202.487C433.756 198.077 431.22 193.084 429.4 187.493C428.52 184.847 427.849 182.097 427.371 179.241C426.894 176.386 426.67 173.501 426.67 170.556V170.541ZM447.345 170.721C447.345 174.308 447.896 177.836 449.015 181.304C450.134 184.772 451.655 187.837 453.595 190.483C455.713 193.428 458.114 195.909 460.814 197.942C463.514 199.976 466.423 201.485 469.525 202.487C472.807 203.668 476.208 204.251 479.728 204.251C483.248 204.251 486.62 203.683 489.842 202.532C493.064 201.381 496.002 199.781 498.642 197.733C501.282 195.73 503.595 193.338 505.593 190.543C507.592 187.747 509.114 184.683 510.173 181.319C510.695 179.675 511.112 177.971 511.411 176.207C511.709 174.443 511.843 172.619 511.843 170.735C511.843 167.267 511.291 163.874 510.173 160.555C509.054 157.237 507.532 154.247 505.593 151.601C501.491 146.01 496.211 142.078 489.752 139.776C486.53 138.655 483.174 138.102 479.713 138.102C476.894 138.102 473.851 138.566 470.555 139.477C467.273 140.389 463.976 142.049 460.695 144.455C457.995 146.459 455.638 148.805 453.61 151.511C451.581 154.217 450.044 157.192 448.985 160.421C448.463 162.065 448.046 163.754 447.747 165.488C447.449 167.223 447.3 168.972 447.3 170.735L447.345 170.721Z" fill="#012233"/>
<path d="M561.142 118.684V137.908C561.142 139.373 561.068 140.913 560.919 142.497C560.77 144.082 560.546 145.816 560.262 147.699C559.904 149.583 559.561 151.526 559.203 153.514C558.845 155.518 558.413 157.595 557.891 159.778C557.592 160.839 557.339 161.901 557.1 162.947C556.802 164.068 556.518 165.19 556.22 166.296H557.98C558.159 165.593 558.413 164.547 558.726 163.171C559.054 161.796 559.412 160.391 559.83 158.986C560.232 157.581 560.62 156.37 560.978 155.368C561.56 153.485 562.022 152.064 562.336 151.093C562.664 150.121 562.992 149.164 563.35 148.223C563.708 147.281 564.23 145.965 564.931 144.261C565.289 143.379 565.632 142.512 565.99 141.66C566.348 140.808 566.691 140.001 567.049 139.238L576.551 118.684H597.24L577.431 159.778L599 223.64H578.326L564.514 182.71L561.172 187.643V223.625H540.498V118.669H561.172L561.142 118.684Z" fill="#012233"/>
<path d="M0 118.683H30.8025C38.6038 118.683 44.7344 121.599 49.1945 127.414C51.3126 130.179 52.9534 133.588 54.1169 137.639C55.2953 141.69 55.877 146.219 55.877 151.227C55.877 155.114 55.519 158.746 54.818 162.125C54.1169 165.503 52.9981 168.583 51.4767 171.348C50.0149 173.994 48.2995 176.237 46.3305 178.045C44.3615 179.869 42.0346 181.274 39.3347 182.276C36.7541 183.218 33.9051 183.681 30.8025 183.681H20.6742V223.64H0V118.683ZM20.6742 164.278H25.522C26.5811 164.278 27.6402 164.113 28.6843 163.799C29.7434 163.47 30.713 162.872 31.593 161.99C32.4134 161.168 33.0698 160.286 33.5769 159.344C34.0692 158.403 34.5018 157.162 34.8597 155.637C34.9791 154.994 35.0686 154.307 35.1282 153.559C35.1879 152.827 35.2177 152.049 35.2177 151.227C35.2177 149.702 35.0835 148.237 34.815 146.862C34.5465 145.487 34.1288 144.231 33.5322 143.11C32.9504 142.049 32.2792 141.152 31.5483 140.419C30.8174 139.687 29.9224 139.089 28.8633 138.61C27.9236 138.252 26.8049 138.087 25.522 138.087H20.6742V164.278Z" fill="#012233"/>
<path d="M63.7979 223.64V118.683H84.4721V204.236H106.041V223.64H63.7979Z" fill="#012233"/>
<path d="M112.62 223.64L128.983 118.683H158.547L174.911 223.64H154.237L151.164 199.557H136.382L133.309 223.64H112.62ZM138.858 180.153H148.717L145.197 147.251C145.078 145.905 144.988 144.68 144.929 143.588C144.869 142.497 144.809 141.331 144.75 140.06C144.69 138.79 144.66 137.25 144.66 135.426H142.9V139.223C142.84 139.702 142.811 140.135 142.811 140.539C142.811 141.122 142.781 141.735 142.721 142.348C142.661 142.96 142.632 143.573 142.632 144.156C142.632 145.337 142.542 146.369 142.363 147.251L138.843 180.153H138.858Z" fill="#012233"/>
<path d="M19.8766 105.901V20.3459H3.5874V0.941772H56.8405V20.3459H40.5513V105.901H19.8617H19.8766Z" fill="#012233"/>
<path d="M63.9561 105.901V0.941772H84.6308V37.7169H100.04V0.941772H120.729V105.901H100.04V57.1211H84.6308V105.901H63.9561Z" fill="#012233"/>
<path d="M173.132 105.901H129.127V0.941772H172.699V20.3459H149.817V40.363H170.939V59.7671H149.817V86.4964H173.147V105.901H173.132Z" fill="#012233"/>
<path d="M207.799 0.941772H236.052C243.271 0.941772 249.313 3.06457 254.175 7.29521C256.458 9.3582 258.442 11.9743 260.112 15.1436C261.783 18.3128 263.006 21.7511 263.767 25.4586C264.587 29.45 265.005 33.8002 265.005 38.5093V68.3181C265.005 73.1915 264.587 77.5717 263.767 81.4585C262.947 85.3453 261.709 88.7836 260.068 91.7735C258.427 94.8978 256.458 97.4691 254.175 99.4873C251.893 101.52 249.193 103.09 246.076 104.211C243.077 105.332 239.736 105.886 236.037 105.886H207.784V0.941772H207.799ZM228.489 86.4964H231.398C240.019 86.4964 244.33 80.4419 244.33 68.333V38.5242C244.33 26.4153 240.019 20.3609 231.398 20.3609H228.489V86.5113V86.4964Z" fill="#012233"/>
<path d="M317.423 105.901H273.418V0.941772H316.99V20.3459H294.108V40.363H315.23V59.7671H294.108V86.4964H317.438V105.901H317.423Z" fill="#012233"/>
<path d="M357.967 32.4249V26.2509C357.967 20.5552 356.057 17.6999 352.253 17.6999C350.493 17.6999 349.121 18.3726 348.121 19.733C347.122 21.0934 346.63 23.0219 346.63 25.5483C346.63 26.3107 346.704 27.1329 346.854 28.0149C347.003 28.8969 347.361 29.8387 347.957 30.8403C348.42 31.7223 349.136 32.7688 350.076 33.9647C351.015 35.1756 352.194 36.4463 353.596 37.8067C354.297 38.5691 355.088 39.3614 355.968 40.1836C356.788 41.0656 357.728 41.9775 358.787 42.9193C361.949 45.8045 364.873 48.6299 367.543 51.3806C370.213 54.1462 372.391 56.5829 374.107 58.7057C375.807 60.9481 377.15 63.0859 378.149 65.1489C379.148 67.2119 379.879 69.3197 380.342 71.5023C380.58 72.6235 380.745 73.7596 380.819 74.9406C380.909 76.1216 380.953 77.3475 380.953 78.648C380.953 82.1761 380.566 85.4201 379.805 88.395C379.044 91.3699 377.866 94.0308 376.284 96.3779C374.823 98.6202 372.898 100.519 370.527 102.103C368.155 103.688 365.559 104.839 362.74 105.542C359.622 106.364 356.281 106.783 352.701 106.783C345.481 106.783 339.619 105.228 335.099 102.103C330.639 99.0538 327.671 94.4942 326.209 88.4398C325.448 85.4948 325.06 82.1163 325.06 78.2893V69.0207H344.422V78.364C344.422 81.7724 345.123 84.4184 346.54 86.3021C347.823 88.1857 349.822 89.1275 352.522 89.1275C353.462 89.1275 354.372 88.9929 355.252 88.7238C356.132 88.4548 356.863 88.0362 357.459 87.4382C357.981 86.915 358.489 86.2423 358.951 85.4499C359.414 84.6576 359.772 83.671 360.01 82.49C360.07 81.9668 360.13 81.3838 360.189 80.7708C360.249 80.1579 360.279 79.5151 360.279 78.8723C360.279 77.6315 360.189 76.5701 360.01 75.6582C359.831 74.7463 359.488 73.7596 358.951 72.6982C358.369 71.6368 357.564 70.5455 356.535 69.4393C355.505 68.3181 354.327 67.0923 352.969 65.7319C352.209 65.0293 351.373 64.2669 350.463 63.4446C349.553 62.6224 348.569 61.7404 347.51 60.7986C344.228 57.8536 341.364 55.1628 338.933 52.726C336.501 50.2893 334.428 47.9273 332.727 45.6251C331.027 43.3977 329.684 41.23 328.73 39.1372C327.76 37.0443 327.044 34.9215 326.567 32.7389C326.328 31.6775 326.164 30.5712 326.089 29.3902C326 28.2092 325.955 27.0133 325.955 25.7725C325.955 22.5435 326.298 19.5237 326.969 16.7282C327.641 13.9327 328.715 11.481 330.177 9.35823C333.055 5.24719 337.217 2.48158 342.677 1.0614C345.377 0.358782 348.45 0 351.925 0C358.489 0 363.889 1.31553 368.125 3.9765C369.527 4.85851 371.034 6.23384 372.615 8.11745C374.196 10.0011 375.434 12.5574 376.314 15.7864C377.015 18.4324 377.373 21.3774 377.373 24.6065V32.3651H358.011L357.967 32.4249Z" fill="#012233"/>
<path d="M390.798 105.901V0.941772H411.473V105.901H390.798Z" fill="#012233"/>
<path d="M519.918 50.0651V63.2055C519.918 67.9145 519.068 72.4292 517.368 76.7495C515.667 81.0698 513.295 85.0613 510.237 88.694C507.179 92.3416 503.599 95.5108 499.497 98.2166C495.395 100.922 490.905 103.015 486.027 104.48C481.045 106.005 475.869 106.768 470.544 106.768C464.846 106.768 459.49 105.901 454.434 104.166C449.392 102.432 444.812 99.9806 440.71 96.7964C437.309 94.1504 433.998 90.6822 430.761 86.3918C427.539 82.1013 425.047 76.8691 423.272 70.695C421.631 65.1638 420.811 59.4084 420.811 53.4137C420.811 47.4191 421.587 41.5291 423.138 36.2669C424.689 31.0048 426.912 26.1612 429.776 21.7512C432.998 16.7581 436.802 12.6919 441.173 9.58249C445.543 6.47305 449.869 4.17086 454.15 2.70583C456.731 1.88362 459.446 1.24081 462.295 0.762429C465.144 0.299003 468.082 0.0598145 471.14 0.0598145C476.063 0.0598145 480.687 0.642835 484.998 1.82383C489.309 3.00482 493.366 4.73893 497.185 7.02617C500.646 9.14896 503.853 11.8249 506.821 15.0539C509.79 18.283 512.236 22.0203 514.175 26.2509C515.115 28.3139 515.921 30.4517 516.592 32.694C517.263 34.9364 517.785 37.2835 518.128 39.7501H497.006C496.648 37.8665 495.962 35.8782 494.933 33.8003C493.903 31.7074 492.486 29.7341 490.667 27.8505C487.385 24.6214 483.387 22.409 478.703 21.2429C476.302 20.6599 473.781 20.3609 471.14 20.3609C467.799 20.3609 464.562 20.8841 461.459 21.9007C458.357 22.9322 455.597 24.4122 453.181 26.3556C448.198 30.4068 444.767 35.8184 442.888 42.5904C441.948 45.9989 441.486 49.6764 441.486 53.623C441.486 57.5696 441.993 61.5013 443.022 64.9097C444.051 68.3181 445.319 71.1734 446.856 73.4607C448.437 75.9871 450.421 78.2594 452.793 80.2476C455.164 82.2508 457.999 83.8055 461.28 84.9267C464.323 85.9881 467.65 86.5114 471.23 86.5114C473.811 86.5114 476.302 86.2124 478.703 85.6294C481.105 85.0463 483.342 84.2241 485.386 83.1627C487.325 82.1611 489.16 80.8904 490.89 79.3208C492.621 77.766 494.068 75.9871 495.246 73.9839C496.424 72.1003 497.364 70.0223 498.065 67.7201H471.23V50.08H519.904L519.918 50.0651Z" fill="#012233"/>
<path d="M550.334 80.2326V105.901H529.659V0.941772H553.869L561.701 29.166C562.402 31.5728 563.133 34.2637 563.908 37.2386C564.669 40.2135 565.4 43.1734 566.101 46.1483C566.802 49.1232 567.384 51.7543 567.861 54.0415C568.92 58.9299 569.86 63.4446 570.68 67.6304C571.501 71.8012 572.321 76.0917 573.142 80.5017C573.5 82.6245 573.813 84.6726 574.111 86.6758C574.41 88.7388 574.693 90.727 574.991 92.6704H576.752C576.274 89.561 575.842 86.7505 575.439 84.254C575.021 81.7575 574.619 79.1862 574.201 76.5402C573.783 73.8941 573.351 70.7548 572.873 67.1072C572.456 64.521 572.053 61.5909 571.635 58.332C571.217 55.073 570.845 51.829 570.487 48.6299C570.129 45.4308 569.905 42.5904 569.785 40.1238C569.606 37.9412 569.472 35.8184 569.383 33.7255C569.293 31.6326 569.248 29.6294 569.248 27.686V0.941772H589.938V105.901H567.056L558.956 78.648C558.374 76.7644 557.688 74.4174 556.927 71.592C556.166 68.7665 555.361 65.7617 554.511 62.5477C553.66 59.3485 552.885 56.1793 552.184 53.0698C551.184 48.7794 550.185 44.3544 549.185 39.7949C548.186 35.2354 547.306 30.7506 546.545 26.3406C546.127 24.2178 545.754 22.1398 545.396 20.0768C545.038 18.0138 544.725 16.0555 544.427 14.1719H542.667C543.248 17.9989 543.905 22.0352 544.606 26.2957C545.307 30.5562 546.008 35.0709 546.724 39.8397C547.306 44.4292 547.902 49.0634 548.484 53.7276C549.066 58.4067 549.543 62.9812 549.886 67.4361C550.006 69.6785 550.11 71.861 550.2 74.0137C550.289 76.1664 550.334 78.2294 550.334 80.2326Z" fill="#012233"/>
</svg>
